<svg width="1200" height="820" viewBox="0 0 1200 820" fill="none" xmlns="http://www.w3.org/2000/svg">
  <defs>
    <linearGradient id="bg" x1="80" y1="60" x2="1120" y2="760" gradientUnits="userSpaceOnUse">
      <stop stop-color="#F8FAFC"/>
      <stop offset="0.5" stop-color="#EFF6FF"/>
      <stop offset="1" stop-color="#ECFDF5"/>
    </linearGradient>
    <linearGradient id="flow" x1="260" y1="410" x2="970" y2="410" gradientUnits="userSpaceOnUse">
      <stop stop-color="#94A3B8"/><stop offset="0.52" stop-color="#2563EB"/><stop offset="1" stop-color="#10B981"/>
    </linearGradient>
    <filter id="shadow" x="-20%" y="-20%" width="140%" height="150%"><feDropShadow dx="0" dy="18" stdDeviation="22" flood-color="#0F172A" flood-opacity="0.10"/></filter>
    <pattern id="grid" width="32" height="32" patternUnits="userSpaceOnUse"><path d="M32 0H0V32" stroke="#CBD5E1" stroke-opacity="0.35"/></pattern>
  </defs>
  <rect x="1" y="1" width="1198" height="818" rx="44" fill="url(#bg)" stroke="#E2E8F0"/>
  <rect x="36" y="36" width="1128" height="748" rx="34" fill="url(#grid)"/>
  <circle cx="590" cy="406" r="180" fill="#2563EB" fill-opacity="0.055"/>
  <circle cx="590" cy="406" r="126" fill="#2563EB" fill-opacity="0.07"/>

  <g filter="url(#shadow)">
    <g transform="translate(72 132) rotate(-5 135 90)">
      <rect width="270" height="180" rx="24" fill="white" stroke="#CBD5E1"/>
      <rect x="22" y="22" width="54" height="54" rx="14" fill="#ECFDF5"/>
      <path d="M39 35H60V60H39z" stroke="#10B981" stroke-width="3"/><path d="M39 45H60M49 35V60" stroke="#10B981" stroke-width="2"/>
      <rect x="92" y="26" width="132" height="12" rx="6" fill="#CBD5E1"/><rect x="92" y="49" width="92" height="9" rx="4.5" fill="#E2E8F0"/>
      <rect x="22" y="98" width="226" height="58" rx="12" fill="#F8FAFC" stroke="#E2E8F0"/>
      <path d="M78 98V156M134 98V156M190 98V156M22 127H248" stroke="#CBD5E1"/>
      <rect x="134" y="127" width="56" height="29" fill="#FEF3C7"/>
    </g>
    <g transform="translate(92 480) rotate(4 130 82)">
      <rect width="260" height="164" rx="24" fill="white" stroke="#CBD5E1"/>
      <rect x="22" y="22" width="48" height="48" rx="13" fill="#EFF6FF"/>
      <path d="M35 34H57V57H35zM40 41H53M40 47H53" stroke="#2563EB" stroke-width="2.5"/>
      <rect x="86" y="27" width="126" height="11" rx="5.5" fill="#CBD5E1"/><rect x="86" y="49" width="92" height="9" rx="4.5" fill="#E2E8F0"/>
      <rect x="22" y="92" width="216" height="12" rx="6" fill="#E2E8F0"/><rect x="22" y="116" width="172" height="12" rx="6" fill="#E2E8F0"/><rect x="22" y="140" width="120" height="8" rx="4" fill="#CBD5E1"/>
    </g>
    <g transform="translate(206 322) rotate(7 92 64)">
      <rect width="184" height="128" rx="20" fill="#FFF" stroke="#CBD5E1"/>
      <rect x="18" y="18" width="148" height="16" rx="8" fill="#F1F5F9"/>
      <rect x="18" y="50" width="68" height="54" rx="10" fill="#DBEAFE"/>
      <rect x="98" y="50" width="68" height="54" rx="10" fill="#DCFCE7"/>
    </g>
  </g>

  <path d="M374 405H458" stroke="url(#flow)" stroke-width="4" stroke-linecap="round" stroke-dasharray="8 12"/>
  <path d="M734 405H824" stroke="url(#flow)" stroke-width="4" stroke-linecap="round" stroke-dasharray="8 12"/>
  <path d="M442 391L460 405L442 419" stroke="#2563EB" stroke-width="4" stroke-linecap="round" stroke-linejoin="round"/>
  <path d="M808 391L826 405L808 419" stroke="#10B981" stroke-width="4" stroke-linecap="round" stroke-linejoin="round"/>

  <g filter="url(#shadow)">
    <rect x="458" y="244" width="278" height="324" rx="38" fill="#0F172A"/>
    <rect x="486" y="272" width="222" height="268" rx="28" fill="#111C31" stroke="#334155"/>
    <circle cx="597" cy="365" r="70" fill="#2563EB" fill-opacity="0.18" stroke="#3B82F6"/>
    <path d="M565 349H629V365H583V381H621V397H583V421H565V349Z" fill="white"/>
    <rect x="629" y="329" width="18" height="18" rx="5" fill="#10B981"/>
    <text x="597" y="467" text-anchor="middle" fill="white" font-family="Arial, sans-serif" font-size="25" font-weight="700">FormaOps</text>
    <text x="597" y="497" text-anchor="middle" fill="#94A3B8" font-family="Arial, sans-serif" font-size="13" letter-spacing="2">WORKFLOW</text>
  </g>

  <g filter="url(#shadow)">
    <rect x="826" y="176" width="310" height="456" rx="30" fill="white" stroke="#CBD5E1"/>
    <rect x="826" y="176" width="310" height="62" rx="30" fill="#F8FAFC"/><rect x="826" y="214" width="310" height="24" fill="#F8FAFC"/>
    <circle cx="854" cy="207" r="6" fill="#CBD5E1"/><circle cx="874" cy="207" r="6" fill="#CBD5E1"/><circle cx="894" cy="207" r="6" fill="#CBD5E1"/>
    <rect x="850" y="264" width="126" height="14" rx="7" fill="#0F172A"/><rect x="850" y="292" width="202" height="9" rx="4.5" fill="#CBD5E1"/>
    <rect x="850" y="334" width="262" height="112" rx="18" fill="#F8FAFC" stroke="#E2E8F0"/>
    <rect x="870" y="354" width="68" height="68" rx="16" fill="#DBEAFE"/><path d="M890 376H918V404H890z" stroke="#2563EB" stroke-width="3"/>
    <rect x="958" y="356" width="116" height="11" rx="5.5" fill="#CBD5E1"/><rect x="958" y="380" width="132" height="9" rx="4.5" fill="#E2E8F0"/><rect x="958" y="403" width="84" height="9" rx="4.5" fill="#10B981" fill-opacity="0.5"/>
    <rect x="850" y="466" width="122" height="116" rx="18" fill="#EFF6FF"/><rect x="990" y="466" width="122" height="116" rx="18" fill="#ECFDF5"/>
    <path d="M872 548L894 520L914 532L944 496" stroke="#2563EB" stroke-width="4" stroke-linecap="round" stroke-linejoin="round"/>
    <path d="M1012 542H1090M1012 520H1072M1012 498H1056" stroke="#10B981" stroke-width="7" stroke-linecap="round"/>
    <rect x="850" y="602" width="124" height="12" rx="6" fill="#E2E8F0"/><rect x="990" y="602" width="84" height="12" rx="6" fill="#10B981"/>
  </g>
</svg>
