<svg width="1200" height="720" viewBox="0 0 1200 720" fill="none" xmlns="http://www.w3.org/2000/svg">
  <defs><linearGradient id="bg" x1="80" y1="60" x2="1120" y2="660"><stop stop-color="#EFF6FF"/><stop offset="1" stop-color="#ECFDF5"/></linearGradient><filter id="shadow"><feDropShadow dx="0" dy="14" stdDeviation="18" flood-color="#0F172A" flood-opacity="0.10"/></filter></defs>
  <rect width="1200" height="720" rx="42" fill="url(#bg)"/>
  <rect x="62" y="60" width="1010" height="600" rx="40" fill="white" fill-opacity="0.72" stroke="#2563EB" stroke-opacity="0.3" stroke-width="3" stroke-dasharray="12 12"/>
  <text x="104" y="112" fill="#2563EB" font-family="Arial" font-size="15" font-weight="700" letter-spacing="2">КОНТУР КОМПАНИИ</text>
  <g filter="url(#shadow)">
    <g transform="translate(106 172)"><rect width="184" height="140" rx="24" fill="white" stroke="#CBD5E1"/><circle cx="58" cy="60" r="24" fill="#DBEAFE"/><circle cx="58" cy="53" r="9" stroke="#2563EB" stroke-width="3"/><path d="M40 81C44 67 72 67 76 81" stroke="#2563EB" stroke-width="3"/><circle cx="118" cy="60" r="24" fill="#DBEAFE"/><circle cx="118" cy="53" r="9" stroke="#2563EB" stroke-width="3"/><path d="M100 81C104 67 132 67 136 81" stroke="#2563EB" stroke-width="3"/><text x="92" y="116" text-anchor="middle" fill="#0F172A" font-family="Arial" font-size="14" font-weight="700">Пользователи</text></g>
    <g transform="translate(378 150)"><rect width="250" height="184" rx="28" fill="#0F172A"/><circle cx="125" cy="75" r="48" fill="#2563EB" fill-opacity="0.2"/><path d="M104 51H146V62H116V73H141V84H116V104H104V51Z" fill="white"/><rect x="141" y="42" width="13" height="13" rx="3" fill="#10B981"/><text x="125" y="146" text-anchor="middle" fill="white" font-family="Arial" font-size="18" font-weight="700">SheetNorm</text></g>
    <g transform="translate(716 172)"><rect width="184" height="140" rx="24" fill="white" stroke="#CBD5E1"/><ellipse cx="92" cy="48" rx="40" ry="14" fill="#DCFCE7" stroke="#10B981" stroke-width="2"/><path d="M52 48V88C52 96 70 103 92 103C114 103 132 96 132 88V48" stroke="#10B981" stroke-width="2"/><path d="M52 68C52 76 70 83 92 83C114 83 132 76 132 68" stroke="#10B981" stroke-width="2"/><text x="92" y="124" text-anchor="middle" fill="#0F172A" font-family="Arial" font-size="14" font-weight="700">База правил</text></g>
    <g transform="translate(106 422)"><rect width="184" height="140" rx="24" fill="white" stroke="#CBD5E1"/><path d="M48 48H86L98 60H136V104H48V48Z" fill="#DBEAFE" stroke="#2563EB" stroke-width="2"/><text x="92" y="124" text-anchor="middle" fill="#0F172A" font-family="Arial" font-size="14" font-weight="700">Файлы</text></g>
    <g transform="translate(378 400)"><rect width="250" height="184" rx="28" fill="white" stroke="#CBD5E1"/><rect x="38" y="38" width="174" height="92" rx="14" fill="#F8FAFC" stroke="#E2E8F0"/><path d="M60 106L88 76L112 91L154 58L190 72" stroke="#10B981" stroke-width="4" stroke-linecap="round" stroke-linejoin="round"/><text x="125" y="158" text-anchor="middle" fill="#0F172A" font-family="Arial" font-size="14" font-weight="700">Отчёты качества</text></g>
    <g transform="translate(716 422)"><rect width="184" height="140" rx="24" fill="white" stroke="#CBD5E1"/><rect x="44" y="42" width="96" height="64" rx="12" fill="#ECFDF5"/><path d="M62 88L80 70L94 80L122 56" stroke="#10B981" stroke-width="4"/><text x="92" y="124" text-anchor="middle" fill="#0F172A" font-family="Arial" font-size="14" font-weight="700">BI / SQL / 1С</text></g>
  </g>
  <g stroke="#2563EB" stroke-width="4" stroke-linecap="round" stroke-dasharray="7 9"><path d="M290 242H378"/><path d="M628 242H716"/><path d="M503 334V400"/><path d="M290 492H378"/><path d="M628 492H716"/></g>
  <g transform="translate(1100 246)"><rect width="72" height="220" rx="28" fill="white" fill-opacity="0.65" stroke="#CBD5E1"/><path d="M18 110H54" stroke="#EF4444" stroke-width="5"/><path d="M24 94L48 126M48 94L24 126" stroke="#EF4444" stroke-width="4"/><text transform="translate(45 188) rotate(-90)" fill="#64748B" font-family="Arial" font-size="11">Внешний API не обязателен</text></g>
</svg>
