<svg width="1400" height="440" viewBox="0 0 1400 440" fill="none" xmlns="http://www.w3.org/2000/svg">
  <defs><linearGradient id="line" x1="100" y1="200" x2="1300" y2="200"><stop stop-color="#2563EB"/><stop offset="1" stop-color="#10B981"/></linearGradient><filter id="shadow"><feDropShadow dx="0" dy="12" stdDeviation="14" flood-color="#0F172A" flood-opacity="0.10"/></filter></defs>
  <rect width="1400" height="440" rx="38" fill="#F8FAFC"/>
  <path d="M118 204H1280" stroke="url(#line)" stroke-width="5" stroke-linecap="round" stroke-dasharray="8 10"/>
  <g font-family="Arial">
    <g transform="translate(82 112)" filter="url(#shadow)"><rect width="150" height="184" rx="24" fill="white" stroke="#DBEAFE"/><circle cx="75" cy="92" r="30" fill="#2563EB"/><text x="75" y="100" text-anchor="middle" fill="white" font-size="17" font-weight="700">01</text><text x="75" y="36" text-anchor="middle" fill="#0F172A" font-size="13" font-weight="700">Задача</text><text x="75" y="154" text-anchor="middle" fill="#64748B" font-size="11">Обсуждение</text></g>
    <g transform="translate(264 112)" filter="url(#shadow)"><rect width="150" height="184" rx="24" fill="white" stroke="#DBEAFE"/><circle cx="75" cy="92" r="30" fill="#2563EB"/><text x="75" y="100" text-anchor="middle" fill="white" font-size="17" font-weight="700">02</text><text x="75" y="36" text-anchor="middle" fill="#0F172A" font-size="13" font-weight="700">Файлы</text><text x="75" y="154" text-anchor="middle" fill="#64748B" font-size="11">3–5 примеров</text></g>
    <g transform="translate(446 112)" filter="url(#shadow)"><rect width="150" height="184" rx="24" fill="white" stroke="#DBEAFE"/><circle cx="75" cy="92" r="30" fill="#2563EB"/><text x="75" y="100" text-anchor="middle" fill="white" font-size="17" font-weight="700">03</text><text x="75" y="36" text-anchor="middle" fill="#0F172A" font-size="13" font-weight="700">Анализ</text><text x="75" y="154" text-anchor="middle" fill="#64748B" font-size="11">Структура</text></g>
    <g transform="translate(628 112)" filter="url(#shadow)"><rect width="150" height="184" rx="24" fill="white" stroke="#BFDBFE"/><circle cx="75" cy="92" r="30" fill="#2563EB"/><text x="75" y="100" text-anchor="middle" fill="white" font-size="17" font-weight="700">04</text><text x="75" y="36" text-anchor="middle" fill="#0F172A" font-size="13" font-weight="700">Сценарий</text><text x="75" y="154" text-anchor="middle" fill="#64748B" font-size="11">Настройка</text></g>
    <g transform="translate(810 112)" filter="url(#shadow)"><rect width="150" height="184" rx="24" fill="white" stroke="#A7F3D0"/><circle cx="75" cy="92" r="30" fill="#10B981"/><text x="75" y="100" text-anchor="middle" fill="white" font-size="17" font-weight="700">05</text><text x="75" y="36" text-anchor="middle" fill="#0F172A" font-size="13" font-weight="700">Демо</text><text x="75" y="154" text-anchor="middle" fill="#64748B" font-size="11">Результат</text></g>
    <g transform="translate(992 112)" filter="url(#shadow)"><rect width="150" height="184" rx="24" fill="white" stroke="#A7F3D0"/><circle cx="75" cy="92" r="30" fill="#10B981"/><text x="75" y="100" text-anchor="middle" fill="white" font-size="17" font-weight="700">06</text><text x="75" y="36" text-anchor="middle" fill="#0F172A" font-size="13" font-weight="700">Оценка</text><text x="75" y="154" text-anchor="middle" fill="#64748B" font-size="11">Экономия</text></g>
    <g transform="translate(1174 112)" filter="url(#shadow)"><rect width="150" height="184" rx="24" fill="white" stroke="#A7F3D0"/><circle cx="75" cy="92" r="30" fill="#10B981"/><text x="75" y="100" text-anchor="middle" fill="white" font-size="17" font-weight="700">07</text><text x="75" y="36" text-anchor="middle" fill="#0F172A" font-size="13" font-weight="700">Конфигурация</text><text x="75" y="154" text-anchor="middle" fill="#64748B" font-size="11">Team / Enterprise</text></g>
  </g>
</svg>
