<svg width="1400" height="800" viewBox="0 0 1400 800" fill="none" xmlns="http://www.w3.org/2000/svg">
  <defs><linearGradient id="team" x1="60" y1="80" x2="650" y2="700"><stop stop-color="#EFF6FF"/><stop offset="1" stop-color="#F8FAFC"/></linearGradient><linearGradient id="ent" x1="750" y1="80" x2="1340" y2="700"><stop stop-color="#ECFDF5"/><stop offset="1" stop-color="#F8FAFC"/></linearGradient><filter id="shadow"><feDropShadow dx="0" dy="18" stdDeviation="22" flood-color="#0F172A" flood-opacity="0.10"/></filter></defs>
  <rect width="1400" height="800" rx="46" fill="#F8FAFC"/>
  <g filter="url(#shadow)">
    <rect x="60" y="64" width="620" height="672" rx="34" fill="url(#team)" stroke="#BFDBFE" stroke-width="2"/>
    <rect x="92" y="96" width="100" height="34" rx="17" fill="#DBEAFE"/><text x="142" y="118" text-anchor="middle" fill="#1D4ED8" font-family="Arial" font-size="13" font-weight="700">TEAM</text>
    <text x="92" y="170" fill="#0F172A" font-family="Arial" font-size="28" font-weight="700">Один отдел</text><text x="92" y="202" fill="#64748B" font-family="Arial" font-size="14">10–30 пользователей · после пилота</text>
    <g transform="translate(120 252)"><circle cx="48" cy="48" r="48" fill="white" stroke="#BFDBFE"/><circle cx="48" cy="39" r="15" fill="#DBEAFE" stroke="#2563EB" stroke-width="3"/><path d="M20 78C28 55 68 55 76 78" stroke="#2563EB" stroke-width="3"/><text x="48" y="120" text-anchor="middle" fill="#475569" font-family="Arial" font-size="12">Отдел</text></g>
    <path d="M220 300H300" stroke="#2563EB" stroke-width="4" stroke-dasharray="7 8"/>
    <g transform="translate(300 238)"><rect width="238" height="128" rx="24" fill="#0F172A"/><text x="119" y="58" text-anchor="middle" fill="white" font-family="Arial" font-size="20" font-weight="700">SheetNorm Team</text><text x="119" y="88" text-anchor="middle" fill="#94A3B8" font-family="Arial" font-size="12">Web App + очередь задач</text></g>
    <g transform="translate(98 438)" font-family="Arial" font-size="12" fill="#475569"><rect width="160" height="102" rx="20" fill="white" stroke="#BFDBFE"/><text x="80" y="56" text-anchor="middle" font-weight="700">База шаблонов</text><rect x="180" width="160" height="102" rx="20" fill="white" stroke="#BFDBFE"/><text x="260" y="56" text-anchor="middle" font-weight="700">Задачи</text><rect x="360" width="160" height="102" rx="20" fill="white" stroke="#BFDBFE"/><text x="440" y="56" text-anchor="middle" font-weight="700">История</text></g>
    <path d="M418 366V420M178 420H518" stroke="#2563EB" stroke-width="3" stroke-dasharray="6 8"/>
    <rect x="98" y="590" width="520" height="90" rx="22" fill="white" stroke="#E2E8F0"/><text x="124" y="624" fill="#64748B" font-family="Arial" font-size="12">Целевая основа</text><text x="124" y="654" fill="#0F172A" font-family="Arial" font-size="17" font-weight="700">PostgreSQL · worker · резервное копирование</text>
  </g>
  <g filter="url(#shadow)">
    <rect x="720" y="64" width="620" height="672" rx="34" fill="url(#ent)" stroke="#A7F3D0" stroke-width="2"/>
    <rect x="752" y="96" width="136" height="34" rx="17" fill="#D1FAE5"/><text x="820" y="118" text-anchor="middle" fill="#047857" font-family="Arial" font-size="13" font-weight="700">ENTERPRISE</text>
    <text x="752" y="170" fill="#0F172A" font-family="Arial" font-size="28" font-weight="700">Несколько подразделений</text><text x="752" y="202" fill="#64748B" font-family="Arial" font-size="14">30–100+ пользователей · после нагрузочного теста</text>
    <g transform="translate(762 258)" font-family="Arial" font-size="11" font-weight="700" fill="#475569">
      <rect width="112" height="74" rx="18" fill="white" stroke="#A7F3D0"/><text x="56" y="43" text-anchor="middle">Пользователи</text><path d="M122 37H154" stroke="#10B981" stroke-width="3"/>
      <rect x="154" width="112" height="74" rx="18" fill="#0F172A"/><text x="210" y="43" text-anchor="middle" fill="white">Web App</text><path d="M276 37H308" stroke="#10B981" stroke-width="3"/>
      <rect x="308" width="112" height="74" rx="18" fill="white" stroke="#A7F3D0"/><text x="364" y="43" text-anchor="middle">PostgreSQL</text><path d="M430 37H462" stroke="#10B981" stroke-width="3"/>
      <rect x="462" width="112" height="74" rx="18" fill="white" stroke="#A7F3D0"/><text x="518" y="43" text-anchor="middle">Redis/RQ</text>
    </g>
    <path d="M1030 332V388" stroke="#10B981" stroke-width="3"/>
    <g transform="translate(792 388)" font-family="Arial" font-size="12" fill="#475569"><rect width="150" height="96" rx="20" fill="white" stroke="#A7F3D0"/><text x="75" y="54" text-anchor="middle" font-weight="700">Workers</text><rect x="174" width="150" height="96" rx="20" fill="white" stroke="#A7F3D0"/><text x="249" y="54" text-anchor="middle" font-weight="700">File Storage</text><rect x="348" width="150" height="96" rx="20" fill="white" stroke="#A7F3D0"/><text x="423" y="54" text-anchor="middle" font-weight="700">API</text></g>
    <g transform="translate(762 548)" font-family="Arial" font-size="12" font-weight="700" fill="#047857"><rect width="168" height="80" rx="20" fill="#D1FAE5"/><text x="84" y="46" text-anchor="middle">Аудит</text><rect x="188" width="168" height="80" rx="20" fill="#D1FAE5"/><text x="272" y="46" text-anchor="middle">Мониторинг</text><rect x="376" width="168" height="80" rx="20" fill="#D1FAE5"/><text x="460" y="46" text-anchor="middle">Backup</text></g>
  </g>
</svg>
