<svg width="1200" height="760" viewBox="0 0 1200 760" fill="none" xmlns="http://www.w3.org/2000/svg">
  <defs><radialGradient id="core"><stop stop-color="#2563EB"/><stop offset="1" stop-color="#1D4ED8"/></radialGradient><filter id="shadow"><feDropShadow dx="0" dy="16" stdDeviation="18" flood-color="#0F172A" flood-opacity="0.10"/></filter></defs>
  <rect width="1200" height="760" rx="42" fill="#F8FAFC"/>
  <circle cx="600" cy="380" r="230" stroke="#CBD5E1" stroke-width="2" stroke-dasharray="8 12"/><circle cx="600" cy="380" r="155" fill="#DBEAFE" fill-opacity="0.55"/>
  <g filter="url(#shadow)"><circle cx="600" cy="380" r="106" fill="url(#core)"/><path d="M557 334H643V355H581V376H633V397H581V444H557V334Z" fill="white"/><rect x="635" y="316" width="28" height="28" rx="7" fill="#10B981"/></g>
  <g filter="url(#shadow)" font-family="Arial" font-size="13" font-weight="700" fill="#0F172A">
    <g transform="translate(90 92)"><rect width="250" height="150" rx="26" fill="white" stroke="#CBD5E1"/><rect x="24" y="24" width="76" height="76" rx="18" fill="#FEF3C7"/><path d="M40 44H84V84H40zM62 44V84M40 64H84" stroke="#F59E0B" stroke-width="3"/><text x="24" y="128">Сложные Excel-структуры</text></g>
    <g transform="translate(860 92)"><rect width="250" height="150" rx="26" fill="white" stroke="#CBD5E1"/><rect x="24" y="24" width="76" height="76" rx="18" fill="#DBEAFE"/><path d="M42 46H82V78H56L44 90V78H42V46Z" stroke="#2563EB" stroke-width="3"/><text x="24" y="128">AI + проверка человеком</text></g>
    <g transform="translate(48 516)"><rect width="250" height="150" rx="26" fill="white" stroke="#CBD5E1"/><rect x="24" y="24" width="76" height="76" rx="18" fill="#ECFDF5"/><path d="M44 46H80V82H44zM54 36H90V72" stroke="#10B981" stroke-width="3"/><text x="24" y="128">Повторяемые шаблоны</text></g>
    <g transform="translate(902 516)"><rect width="250" height="150" rx="26" fill="white" stroke="#CBD5E1"/><rect x="24" y="24" width="76" height="76" rx="18" fill="#F1F5F9"/><path d="M42 78L55 63L67 71L84 48" stroke="#475569" stroke-width="4"/><text x="24" y="128">История и качество</text></g>
    <g transform="translate(104 306)"><rect width="230" height="150" rx="26" fill="white" stroke="#CBD5E1"/><rect x="24" y="24" width="76" height="76" rx="18" fill="#DBEAFE"/><text x="62" y="58" text-anchor="middle" fill="#2563EB" font-size="11">TEAM</text><text x="62" y="79" text-anchor="middle" fill="#10B981" font-size="10">ENTERPRISE</text><text x="24" y="128">После пилота</text></g>
    <g transform="translate(866 306)"><rect width="230" height="150" rx="26" fill="white" stroke="#CBD5E1"/><rect x="24" y="24" width="76" height="76" rx="18" fill="#ECFDF5"/><path d="M40 66H84M62 44V88" stroke="#10B981" stroke-width="4"/><rect x="46" y="50" width="32" height="32" rx="7" stroke="#10B981" stroke-width="3"/><text x="24" y="128">Локальный контур</text></g>
  </g>
  <g stroke="#2563EB" stroke-opacity="0.35" stroke-width="3"><path d="M340 167L505 302"/><path d="M860 167L695 302"/><path d="M298 591L505 458"/><path d="M902 591L695 458"/><path d="M334 381H494"/><path d="M706 381H866"/></g>
</svg>
